<mxfile host="app.diagrams.net" modified="2020-08-18T11:11:54.950Z" agent="5.0 (Windows NT 10.0; WOW64) AppleWebKit/537.36 (KHTML, like Gecko) Chrome/81.0.4044.138 Safari/537.36" etag="KD3gr0p6dktqEngLvzYM" version="13.6.2" type="github">
  <diagram id="U0eXUEgoprwh8FzhrCKP" name="Page-1">
    <mxGraphModel dx="1673" dy="1038" grid="1" gridSize="10" guides="1" tooltips="1" connect="1" arrows="1" fold="1" page="1" pageScale="1" pageWidth="1654" pageHeight="2336" math="0" shadow="0">
      <root>
        <mxCell id="0" />
        <mxCell id="1" parent="0" />
        <mxCell id="ccjNXINSuA02H1ZCqQi0-5" style="edgeStyle=orthogonalEdgeStyle;rounded=0;orthogonalLoop=1;jettySize=auto;html=1;exitX=1;exitY=0.5;exitDx=0;exitDy=0;entryX=0;entryY=0.5;entryDx=0;entryDy=0;" edge="1" parent="1" source="ccjNXINSuA02H1ZCqQi0-1" target="ccjNXINSuA02H1ZCqQi0-4">
          <mxGeometry relative="1" as="geometry" />
        </mxCell>
        <mxCell id="ccjNXINSuA02H1ZCqQi0-1" value="&lt;span style=&quot;font-family: &amp;#34;microsoft yahei&amp;#34; , ; font-size: 13.3333px ; text-align: left ; background-color: rgb(255 , 255 , 255)&quot;&gt;视频-活跃用户&lt;/span&gt;&lt;span style=&quot;color: rgb(77 , 77 , 77) ; font-family: &amp;#34;helvetica neue for number&amp;#34; , , &amp;#34;blinkmacsystemfont&amp;#34; , &amp;#34;segoe ui&amp;#34; , &amp;#34;roboto&amp;#34; , &amp;#34;pingfang sc&amp;#34; , &amp;#34;hiragino sans gb&amp;#34; , &amp;#34;microsoft yahei&amp;#34; , &amp;#34;helvetica neue&amp;#34; , &amp;#34;helvetica&amp;#34; , &amp;#34;arial&amp;#34; , sans-serif ; font-size: 13px ; background-color: rgb(255 , 255 , 255)&quot;&gt;&lt;br&gt;t_omgid_video_active_user&lt;/span&gt;" style="rounded=0;whiteSpace=wrap;html=1;" vertex="1" parent="1">
          <mxGeometry x="100" y="130" width="200" height="60" as="geometry" />
        </mxCell>
        <mxCell id="ccjNXINSuA02H1ZCqQi0-7" style="edgeStyle=orthogonalEdgeStyle;rounded=0;orthogonalLoop=1;jettySize=auto;html=1;exitX=1;exitY=0.5;exitDx=0;exitDy=0;entryX=0;entryY=0.5;entryDx=0;entryDy=0;" edge="1" parent="1" source="ccjNXINSuA02H1ZCqQi0-2" target="ccjNXINSuA02H1ZCqQi0-6">
          <mxGeometry relative="1" as="geometry" />
        </mxCell>
        <mxCell id="ccjNXINSuA02H1ZCqQi0-2" value="&lt;span style=&quot;color: rgb(43 , 43 , 43) ; font-family: &amp;#34;pingfang sc&amp;#34; , &amp;#34;microsoft yahei&amp;#34; , , , sans-serif ; background-color: rgb(255 , 255 , 255)&quot;&gt;腾讯视频用户宽表&lt;br&gt;t_videoapp_ug_omgid_active_bigtable&lt;/span&gt;" style="rounded=0;whiteSpace=wrap;html=1;" vertex="1" parent="1">
          <mxGeometry x="60" y="385" width="220" height="60" as="geometry" />
        </mxCell>
        <mxCell id="ccjNXINSuA02H1ZCqQi0-8" style="edgeStyle=orthogonalEdgeStyle;rounded=0;orthogonalLoop=1;jettySize=auto;html=1;exitX=1;exitY=0.5;exitDx=0;exitDy=0;entryX=0.5;entryY=1;entryDx=0;entryDy=0;" edge="1" parent="1" source="ccjNXINSuA02H1ZCqQi0-3" target="ccjNXINSuA02H1ZCqQi0-6">
          <mxGeometry relative="1" as="geometry" />
        </mxCell>
        <mxCell id="ccjNXINSuA02H1ZCqQi0-3" value="&lt;span style=&quot;font-family: &amp;#34;microsoft yahei&amp;#34; , ; font-size: 13.3333px ; text-align: left ; background-color: rgb(255 , 255 , 255)&quot;&gt;视频-新增活跃用户&lt;/span&gt;&lt;span style=&quot;font-family: &amp;#34;microsoft yahei&amp;#34; , ; font-size: 13.3333px ; text-align: left ; background-color: rgb(255 , 255 , 255)&quot;&gt;&lt;br&gt;t_omgid_video_new_active_user&lt;/span&gt;" style="rounded=0;whiteSpace=wrap;html=1;" vertex="1" parent="1">
          <mxGeometry x="60" y="620" width="210" height="60" as="geometry" />
        </mxCell>
        <mxCell id="ccjNXINSuA02H1ZCqQi0-4" value="&lt;span style=&quot;font-family: &amp;#34;microsoft yahei&amp;#34; , ; font-size: 13.3333px ; text-align: left ; background-color: rgb(255 , 255 , 255)&quot;&gt;从全量表提取的活跃用户表&lt;/span&gt;&lt;span style=&quot;font-family: &amp;#34;microsoft yahei&amp;#34; , ; font-size: 13.3333px ; text-align: left ; background-color: rgb(255 , 255 , 255)&quot;&gt;&lt;br&gt;t_pba_tencentvideo_lt_active_user_mid&lt;/span&gt;" style="rounded=0;whiteSpace=wrap;html=1;" vertex="1" parent="1">
          <mxGeometry x="460" y="130" width="240" height="60" as="geometry" />
        </mxCell>
        <mxCell id="ccjNXINSuA02H1ZCqQi0-6" value="&lt;span style=&quot;font-family: &amp;#34;microsoft yahei&amp;#34; , ; font-size: 13.3333px ; text-align: left ; background-color: rgb(255 , 255 , 255)&quot;&gt;视频特征值聚合表&lt;br&gt;t_pba_tencentvideo_lt_union_2d&lt;br&gt;&lt;/span&gt;&lt;span style=&quot;font-family: &amp;#34;microsoft yahei&amp;#34; , ; font-size: 13.3333px ; text-align: left ; background-color: rgb(255 , 255 , 255)&quot;&gt;t_pba_tencentvideo_lt_union_3d&lt;br&gt;&lt;/span&gt;&lt;span style=&quot;font-family: &amp;#34;microsoft yahei&amp;#34; , ; font-size: 13.3333px ; text-align: left ; background-color: rgb(255 , 255 , 255)&quot;&gt;t_pba_tencentvideo_lt_union_7d&lt;br&gt;&lt;/span&gt;&lt;span style=&quot;font-family: &amp;#34;microsoft yahei&amp;#34; , ; font-size: 13.3333px ; text-align: left ; background-color: rgb(255 , 255 , 255)&quot;&gt;t_pba_tencentvideo_lt_union_14d&lt;br&gt;&lt;/span&gt;&lt;span style=&quot;font-family: &amp;#34;microsoft yahei&amp;#34; , ; font-size: 13.3333px ; text-align: left ; background-color: rgb(255 , 255 , 255)&quot;&gt;t_pba_tencentvideo_lt_union_30d&lt;/span&gt;&lt;span style=&quot;font-family: &amp;#34;microsoft yahei&amp;#34; , ; font-size: 13.3333px ; text-align: left ; background-color: rgb(255 , 255 , 255)&quot;&gt;&lt;br&gt;&lt;/span&gt;" style="rounded=0;whiteSpace=wrap;html=1;" vertex="1" parent="1">
          <mxGeometry x="500" y="360" width="210" height="110" as="geometry" />
        </mxCell>
        <mxCell id="ccjNXINSuA02H1ZCqQi0-9" value="&lt;span style=&quot;font-family: &amp;#34;microsoft yahei&amp;#34; , ; font-size: 13.3333px ; text-align: left ; background-color: rgb(255 , 255 , 255)&quot;&gt;视频LT 表&lt;br&gt;t_pba_tencentvideo_lt_label_3&lt;br&gt;&lt;/span&gt;&lt;span style=&quot;font-family: &amp;#34;microsoft yahei&amp;#34; , ; font-size: 13.3333px ; text-align: left ; background-color: rgb(255 , 255 , 255)&quot;&gt;t_pba_tencentvideo_lt_label_7&lt;br&gt;&lt;/span&gt;&lt;span style=&quot;font-family: &amp;#34;microsoft yahei&amp;#34; , ; font-size: 13.3333px ; text-align: left ; background-color: rgb(255 , 255 , 255)&quot;&gt;t_pba_tencentvideo_lt_label_14&lt;br&gt;&lt;/span&gt;&lt;span style=&quot;font-family: &amp;#34;microsoft yahei&amp;#34; , ; font-size: 13.3333px ; text-align: left ; background-color: rgb(255 , 255 , 255)&quot;&gt;t_pba_tencentvideo_lt_label_21&lt;br&gt;&lt;/span&gt;&lt;span style=&quot;font-family: &amp;#34;microsoft yahei&amp;#34; , ; font-size: 13.3333px ; text-align: left ; background-color: rgb(255 , 255 , 255)&quot;&gt;t_pba_tencentvideo_lt_label_30&lt;br&gt;&lt;/span&gt;&lt;span style=&quot;font-family: &amp;#34;microsoft yahei&amp;#34; , ; font-size: 13.3333px ; text-align: left ; background-color: rgb(255 , 255 , 255)&quot;&gt;t_pba_tencentvideo_lt_label_60&lt;br&gt;&lt;/span&gt;&lt;span style=&quot;font-family: &amp;#34;microsoft yahei&amp;#34; , ; font-size: 13.3333px ; text-align: left ; background-color: rgb(255 , 255 , 255)&quot;&gt;t_pba_tencentvideo_lt_label_180&lt;br&gt;&lt;/span&gt;&lt;span style=&quot;font-family: &amp;#34;microsoft yahei&amp;#34; , ; font-size: 13.3333px ; text-align: left ; background-color: rgb(255 , 255 , 255)&quot;&gt;t_pba_tencentvideo_lt_label_365&lt;br&gt;&lt;/span&gt;&lt;span style=&quot;font-family: &amp;#34;microsoft yahei&amp;#34; , ; font-size: 13.3333px ; text-align: left ; background-color: rgb(255 , 255 , 255)&quot;&gt;&lt;br&gt;&lt;/span&gt;" style="rounded=0;whiteSpace=wrap;html=1;" vertex="1" parent="1">
          <mxGeometry x="710" y="560" width="300" height="160" as="geometry" />
        </mxCell>
        <mxCell id="ccjNXINSuA02H1ZCqQi0-10" value="&lt;span style=&quot;font-family: &amp;#34;microsoft yahei&amp;#34; , ; font-size: 13.3333px ; text-align: left ; background-color: rgb(255 , 255 , 255)&quot;&gt;新增日期前x天的往前一星期的平均LT&lt;br&gt;t_pba_tencentvideo_past_lt7&lt;br&gt;&lt;/span&gt;&lt;span style=&quot;font-family: &amp;#34;microsoft yahei&amp;#34; , ; font-size: 13.3333px ; text-align: left ; background-color: rgb(255 , 255 , 255)&quot;&gt;t_pba_tencentvideo_past_lt14&lt;br&gt;&lt;/span&gt;&lt;span style=&quot;font-family: &amp;#34;microsoft yahei&amp;#34; , ; font-size: 13.3333px ; text-align: left ; background-color: rgb(255 , 255 , 255)&quot;&gt;t_pba_tencentvideo_past_lt30&lt;/span&gt;&lt;span style=&quot;font-family: &amp;#34;microsoft yahei&amp;#34; , ; font-size: 13.3333px ; text-align: left ; background-color: rgb(255 , 255 , 255)&quot;&gt;&lt;br&gt;&lt;/span&gt;" style="rounded=0;whiteSpace=wrap;html=1;" vertex="1" parent="1">
          <mxGeometry x="860" y="150" width="260" height="100" as="geometry" />
        </mxCell>
      </root>
    </mxGraphModel>
  </diagram>
</mxfile>
